<svg width="36" height="36" viewBox="0 0 36 36" fill="none" xmlns="http://www.w3.org/2000/svg">
<path fill-rule="evenodd" clip-rule="evenodd" d="M26.49 8.81774C26.0996 8.4274 25.4658 8.4283 25.0744 8.81973L8.94568 24.9485C8.55421 25.3399 8.55335 25.9737 8.94368 26.364C9.33404 26.7544 9.96776 26.7535 10.3592 26.362L26.488 10.2333C26.8794 9.84186 26.8803 9.2081 26.49 8.81774Z" fill="white" stroke="white" stroke-width="3"/>
<path fill-rule="evenodd" clip-rule="evenodd" d="M26.4879 24.9485L10.3592 8.81974C9.96775 8.42831 9.33237 8.429 8.94009 8.82128C8.54778 9.21359 8.54712 9.84893 8.93855 10.2404L25.0673 26.3691C25.4587 26.7606 26.0941 26.7599 26.4864 26.3676C26.8787 25.9753 26.8794 25.3399 26.4879 24.9485Z" fill="white" stroke="white" stroke-width="3"/>
</svg>
