<svg width="31" height="31" viewBox="0 0 31 31" fill="none" xmlns="http://www.w3.org/2000/svg">
<path fill-rule="evenodd" clip-rule="evenodd" d="M8.72316 8.80354C7.70931 7.78969 6.05943 7.78969 5.04555 8.80354L4.68926 9.15985C3.74371 10.1054 3.68043 11.6035 4.49804 12.6235L3.60547 15.3863L14.6654 26.4462L17.4281 25.5537C17.9014 25.9331 18.4771 26.1229 19.053 26.1229C19.7188 26.1229 20.3849 25.8694 20.8918 25.3627L21.2484 25.0061C22.2622 23.9923 22.2622 22.3424 21.2481 21.3285L8.72316 8.80354Z" fill="#09ACCE"/>
<path fill-rule="evenodd" clip-rule="evenodd" d="M0.14808 26.0876C-0.20317 27.1757 0.0809 28.354 0.88933 29.1624C1.84427 29.9974 2.86914 30.2444 3.96416 29.9037L8.56759 28.4164L1.63542 21.4842L0.14808 26.0876Z" fill="#09ACCE"/>
<path fill-rule="evenodd" clip-rule="evenodd" d="M2.23438 19.6311L10.421 27.8177L12.8126 27.0448L3.00703 17.2393L2.23438 19.6311Z" fill="#09ACCE"/>
<path fill-rule="evenodd" clip-rule="evenodd" d="M16.947 13.5036C17.1689 13.5036 17.3908 13.4189 17.56 13.2497C18.05 12.7598 18.3547 12.625 18.7405 12.4546C19.203 12.2501 19.7271 12.0188 20.4462 11.2995C21.1652 10.5805 21.397 10.0564 21.6013 9.59391C22.0027 8.67841 22.6614 8.01992 23.5767 7.61822C24.0391 7.41393 24.5633 7.18237 25.2823 6.46357C25.621 6.12493 25.621 5.57604 25.2823 5.23763C24.9439 4.89898 24.395 4.89898 24.0564 5.23763C23.5664 5.7276 23.2619 5.86218 22.876 6.03254C22.4136 6.23682 21.8895 6.4684 21.1704 7.1874C20.4514 7.90642 20.2199 8.43078 20.0156 8.89323C19.845 9.27888 19.7104 9.58359 19.2202 10.0738C18.7302 10.5638 18.4255 10.6983 18.0397 10.8689C17.5772 11.0732 17.0531 11.3048 16.3341 12.0238C15.9954 12.3624 15.9954 12.9113 16.3341 13.2497C16.5033 13.4189 16.7252 13.5035 16.9469 13.5035L16.947 13.5036Z" fill="#09ACCE"/>
<path fill-rule="evenodd" clip-rule="evenodd" d="M11.771 7.81675C11.771 8.29525 12.1592 8.68342 12.6379 8.68342C13.1166 8.68342 13.5048 8.29525 13.5048 7.81675C13.5048 7.46756 13.577 7.341 13.7215 7.08833C13.9092 6.75955 14.1665 6.30925 14.1665 5.4999C14.1665 4.69055 13.9092 4.24025 13.7215 3.91147C13.4323 3.42609 13.4323 2.94048 13.7215 2.4551C13.9092 2.12632 14.1665 1.67625 14.1665 0.8669C14.1665 0.38817 13.7783 0 13.2998 0C12.8211 0 12.4329 0.38817 12.4329 0.8669C12.4329 1.21563 12.3605 1.34242 12.2163 1.59485C12.0282 1.92363 11.771 2.37393 11.771 3.18328C11.771 3.99263 12.0282 4.44293 12.2163 4.77171C12.5051 5.25709 12.5051 5.7427 12.2163 6.22808C12.0282 6.55709 11.771 7.00739 11.771 7.81674L11.771 7.81675Z" fill="#09ACCE"/>
<path fill-rule="evenodd" clip-rule="evenodd" d="M29.1849 16.5471C28.8362 16.5471 28.7094 16.4746 28.457 16.3302C28.1282 16.1424 27.6779 15.8852 26.8685 15.8852C26.0591 15.8852 25.6089 16.1424 25.2803 16.3302C24.7947 16.6194 24.3091 16.6194 23.8235 16.3302C23.4949 16.1424 23.0446 15.8852 22.2352 15.8852C21.7565 15.8852 21.3684 16.2733 21.3684 16.7521C21.3684 17.2308 21.7565 17.6188 22.2352 17.6188C22.5842 17.6188 22.711 17.6912 22.9635 17.8357C23.2923 18.0234 23.7425 18.2807 24.5519 18.2807C25.3612 18.2807 25.8116 18.0234 26.1403 17.8357C26.6257 17.5465 27.1113 17.5465 27.5967 17.8357C27.9255 18.0234 28.3755 18.2807 29.1849 18.2807C29.6636 18.2807 30.0518 17.8925 30.0518 17.4138C30.0518 16.935 29.6639 16.5471 29.1849 16.5471H29.1849Z" fill="#09ACCE"/>
<path fill-rule="evenodd" clip-rule="evenodd" d="M17.6491 3.90913H19.5211C19.9999 3.90913 20.3881 3.52097 20.3881 3.04224C20.3881 2.56351 19.9999 2.17535 19.5211 2.17535H17.6491C17.1704 2.17535 16.7822 2.56352 16.7822 3.04224C16.7822 3.52097 17.1704 3.90913 17.6491 3.90913Z" fill="#09ACCE"/>
<path fill-rule="evenodd" clip-rule="evenodd" d="M17.1811 8.12146C17.6598 8.12146 18.048 7.73329 18.048 7.25456V6.31843C18.048 5.8397 17.6598 5.45154 17.1811 5.45154C16.7024 5.45154 16.3142 5.8397 16.3142 6.31843V7.25456C16.3142 7.73329 16.7024 8.12146 17.1811 8.12146Z" fill="#09ACCE"/>
<path fill-rule="evenodd" clip-rule="evenodd" d="M27.0095 13.2697C27.4882 13.2697 27.8764 12.8815 27.8764 12.4028V10.5307C27.8764 10.052 27.4882 9.66382 27.0095 9.66382C26.5308 9.66382 26.1426 10.052 26.1426 10.5307V12.4028C26.1426 12.8815 26.5308 13.2697 27.0095 13.2697Z" fill="#09ACCE"/>
<path fill-rule="evenodd" clip-rule="evenodd" d="M22.7971 12.004C22.3184 12.004 21.9304 12.392 21.9304 12.8707C21.9304 13.3494 22.3184 13.7376 22.7971 13.7376H23.7332C24.212 13.7376 24.6001 13.3494 24.6001 12.8707C24.6001 12.392 24.212 12.004 23.7332 12.004H22.7971Z" fill="#09ACCE"/>
</svg>
