<svg width="28" height="35" viewBox="0 0 28 35" fill="none" xmlns="http://www.w3.org/2000/svg">
<path fill-rule="evenodd" clip-rule="evenodd" d="M23.0426 21.229C23.0426 21.9174 22.4826 22.4773 21.7943 22.4773H6.20561C5.51727 22.4773 4.95731 21.9173 4.95731 21.229V9.45934L14 2.42615L23.0426 9.45934V21.229ZM24.6221 8.20824L14.6008 0.413894C14.2474 0.139074 13.7526 0.139024 13.3991 0.413894L3.37783 8.20824C3.13944 8.39363 3 8.67873 3 8.98071V21.229C3 22.9966 4.43805 24.4347 6.20561 24.4347H21.7943C23.562 24.4347 25 22.9966 25 21.229V8.98071C25 8.67873 24.8605 8.39368 24.6221 8.20824H24.6221Z" fill="#5F87E7"/>
<path fill-rule="evenodd" clip-rule="evenodd" d="M17.5982 10.3312H10.4016C9.81942 10.3312 9.34742 10.8034 9.34742 11.3858V23.3847C9.34742 23.9671 9.81942 24.4393 10.4016 24.4393C10.9838 24.4393 11.4558 23.9671 11.4558 23.3847V12.4404H16.544V23.3847C16.544 23.9672 17.0159 24.4393 17.5981 24.4393C18.1804 24.4393 18.6523 23.9672 18.6524 23.3847V11.3858C18.6524 10.8034 18.1805 10.3312 17.5982 10.3312L17.5982 10.3312Z" fill="#5F87E7"/>
<path d="M1.02098 34C0.95431 34 0.897643 33.98 0.850977 33.94C0.80431 33.8933 0.780977 33.8333 0.780977 33.76V27.25C0.780977 27.1767 0.80431 27.1167 0.850977 27.07C0.897643 27.0233 0.95431 27 1.02098 27H1.93098C2.00431 27 2.06098 27.0233 2.10098 27.07C2.14764 27.1167 2.17098 27.1767 2.17098 27.25V29.83H5.12098V27.25C5.12098 27.1767 5.14431 27.1167 5.19098 27.07C5.23764 27.0233 5.29431 27 5.36098 27H6.26098C6.33431 27 6.39431 27.0233 6.44098 27.07C6.48764 27.1167 6.51098 27.1767 6.51098 27.25V33.76C6.51098 33.8267 6.48764 33.8833 6.44098 33.93C6.39431 33.9767 6.33431 34 6.26098 34H5.36098C5.29431 34 5.23764 33.9767 5.19098 33.93C5.14431 33.8833 5.12098 33.8267 5.12098 33.76V31.08H2.17098V33.76C2.17098 33.8267 2.14764 33.8833 2.10098 33.93C2.06098 33.9767 2.00431 34 1.93098 34H1.02098ZM10.2461 34.1C9.7128 34.1 9.2628 34.0067 8.89613 33.82C8.53613 33.6333 8.25947 33.37 8.06613 33.03C7.87947 32.69 7.7728 32.2933 7.74613 31.84C7.73947 31.72 7.73613 31.5733 7.73613 31.4C7.73613 31.2267 7.73947 31.08 7.74613 30.96C7.7728 30.5 7.8828 30.1033 8.07613 29.77C8.27613 29.43 8.55613 29.1667 8.91613 28.98C9.2828 28.7933 9.72613 28.7 10.2461 28.7C10.7661 28.7 11.2061 28.7933 11.5661 28.98C11.9328 29.1667 12.2128 29.43 12.4061 29.77C12.6061 30.1033 12.7195 30.5 12.7461 30.96C12.7528 31.08 12.7561 31.2267 12.7561 31.4C12.7561 31.5733 12.7528 31.72 12.7461 31.84C12.7195 32.2933 12.6095 32.69 12.4161 33.03C12.2295 33.37 11.9528 33.6333 11.5861 33.82C11.2261 34.0067 10.7795 34.1 10.2461 34.1ZM10.2461 33.11C10.5995 33.11 10.8728 33 11.0661 32.78C11.2595 32.5533 11.3661 32.2233 11.3861 31.79C11.3928 31.69 11.3961 31.56 11.3961 31.4C11.3961 31.24 11.3928 31.11 11.3861 31.01C11.3661 30.5833 11.2595 30.2567 11.0661 30.03C10.8728 29.8033 10.5995 29.69 10.2461 29.69C9.8928 29.69 9.61947 29.8033 9.42613 30.03C9.2328 30.2567 9.12613 30.5833 9.10613 31.01C9.09947 31.11 9.09613 31.24 9.09613 31.4C9.09613 31.56 9.09947 31.69 9.10613 31.79C9.12613 32.2233 9.2328 32.5533 9.42613 32.78C9.61947 33 9.8928 33.11 10.2461 33.11ZM14.1041 34C14.0374 34 13.9808 33.9767 13.9341 33.93C13.8874 33.8833 13.8641 33.8267 13.8641 33.76V29.04C13.8641 28.9733 13.8874 28.9167 13.9341 28.87C13.9808 28.8233 14.0374 28.8 14.1041 28.8H14.8841C14.9508 28.8 15.0074 28.8233 15.0541 28.87C15.1008 28.9167 15.1241 28.9733 15.1241 29.04V29.38C15.2641 29.1933 15.4508 29.0367 15.6841 28.91C15.9241 28.7767 16.2074 28.7067 16.5341 28.7C17.2941 28.6867 17.8241 28.9833 18.1241 29.59C18.2774 29.3233 18.4974 29.11 18.7841 28.95C19.0774 28.7833 19.4008 28.7 19.7541 28.7C20.1008 28.7 20.4141 28.78 20.6941 28.94C20.9808 29.1 21.2041 29.3433 21.3641 29.67C21.5308 29.99 21.6141 30.3967 21.6141 30.89V33.76C21.6141 33.8267 21.5908 33.8833 21.5441 33.93C21.4974 33.9767 21.4408 34 21.3741 34H20.5541C20.4874 34 20.4308 33.9767 20.3841 33.93C20.3374 33.8833 20.3141 33.8267 20.3141 33.76V30.97C20.3141 30.67 20.2708 30.4333 20.1841 30.26C20.0974 30.08 19.9808 29.9533 19.8341 29.88C19.6874 29.8067 19.5241 29.77 19.3441 29.77C19.1974 29.77 19.0508 29.8067 18.9041 29.88C18.7574 29.9533 18.6374 30.08 18.5441 30.26C18.4508 30.4333 18.4041 30.67 18.4041 30.97V33.76C18.4041 33.8267 18.3808 33.8833 18.3341 33.93C18.2874 33.9767 18.2308 34 18.1641 34H17.3441C17.2708 34 17.2108 33.9767 17.1641 33.93C17.1241 33.8833 17.1041 33.8267 17.1041 33.76V30.97C17.1041 30.67 17.0574 30.4333 16.9641 30.26C16.8708 30.08 16.7508 29.9533 16.6041 29.88C16.4574 29.8067 16.3008 29.77 16.1341 29.77C15.9808 29.77 15.8308 29.81 15.6841 29.89C15.5374 29.9633 15.4174 30.0867 15.3241 30.26C15.2308 30.4333 15.1841 30.67 15.1841 30.97V33.76C15.1841 33.8267 15.1608 33.8833 15.1141 33.93C15.0674 33.9767 15.0108 34 14.9441 34H14.1041ZM25.1275 34.1C24.3875 34.1 23.8009 33.8867 23.3675 33.46C22.9342 33.0333 22.7009 32.4267 22.6675 31.64C22.6609 31.5733 22.6575 31.49 22.6575 31.39C22.6575 31.2833 22.6609 31.2 22.6675 31.14C22.6942 30.64 22.8075 30.2067 23.0075 29.84C23.2142 29.4733 23.4975 29.1933 23.8575 29C24.2175 28.8 24.6409 28.7 25.1275 28.7C25.6675 28.7 26.1209 28.8133 26.4875 29.04C26.8542 29.26 27.1309 29.57 27.3175 29.97C27.5042 30.3633 27.5975 30.82 27.5975 31.34V31.55C27.5975 31.6167 27.5742 31.6733 27.5275 31.72C27.4809 31.7667 27.4209 31.79 27.3475 31.79H24.0275C24.0275 31.79 24.0275 31.8 24.0275 31.82C24.0275 31.84 24.0275 31.8567 24.0275 31.87C24.0342 32.1033 24.0775 32.32 24.1575 32.52C24.2442 32.7133 24.3675 32.87 24.5275 32.99C24.6942 33.11 24.8909 33.17 25.1175 33.17C25.3042 33.17 25.4609 33.1433 25.5875 33.09C25.7142 33.03 25.8175 32.9633 25.8975 32.89C25.9775 32.8167 26.0342 32.7567 26.0675 32.71C26.1275 32.63 26.1742 32.5833 26.2075 32.57C26.2475 32.55 26.3042 32.54 26.3775 32.54H27.2375C27.3042 32.54 27.3575 32.56 27.3975 32.6C27.4442 32.64 27.4642 32.69 27.4575 32.75C27.4509 32.8567 27.3942 32.9867 27.2875 33.14C27.1875 33.2933 27.0409 33.4433 26.8475 33.59C26.6542 33.7367 26.4109 33.86 26.1175 33.96C25.8309 34.0533 25.5009 34.1 25.1275 34.1ZM24.0275 30.95H26.2375V30.92C26.2375 30.66 26.1942 30.4333 26.1075 30.24C26.0209 30.0467 25.8942 29.8933 25.7275 29.78C25.5609 29.6667 25.3609 29.61 25.1275 29.61C24.8942 29.61 24.6942 29.6667 24.5275 29.78C24.3609 29.8933 24.2342 30.0467 24.1475 30.24C24.0675 30.4333 24.0275 30.66 24.0275 30.92V30.95Z" fill="#5F87E7"/>
</svg>
