<svg width="30" height="36" viewBox="0 0 30 36" fill="none" xmlns="http://www.w3.org/2000/svg">
<path fill-rule="evenodd" clip-rule="evenodd" d="M26.2553 8.18327H3.06902C2.50493 8.18327 2.04608 7.72442 2.04608 7.16033C2.04608 6.59651 2.50493 6.13766 3.06902 6.13766H26.2553C26.8191 6.13766 27.2782 6.59651 27.2782 7.16033C27.2782 7.72442 26.8191 8.18327 26.2553 8.18327ZM13.6391 18.4127H15.685C17.1892 18.4127 18.4129 19.6364 18.4129 21.1403C18.4129 22.6446 17.1892 23.8682 15.685 23.8682V25.573C15.685 26.1379 15.2269 26.5959 14.662 26.5959C14.0971 26.5959 13.6391 26.1379 13.6391 25.573V23.8682H11.9344C11.3695 23.8682 10.9114 23.4102 10.9114 22.8453C10.9114 22.2804 11.3695 21.8224 11.9344 21.8224H15.685C16.061 21.8224 16.367 21.5164 16.367 21.1403C16.367 20.7643 16.061 20.4583 15.685 20.4583H13.6391C12.1351 20.4583 10.9114 19.2346 10.9114 17.7306C10.9114 16.2266 12.1351 15.0029 13.6391 15.0029V13.298C13.6391 12.7331 14.0971 12.275 14.662 12.275C15.2269 12.275 15.685 12.7331 15.685 13.298V15.0029H17.39C17.9549 15.0029 18.4129 15.4607 18.4129 16.0256C18.4129 16.5908 17.9549 17.0486 17.39 17.0486H13.6391C13.263 17.0486 12.9573 17.3545 12.9573 17.7306C12.9573 18.1067 13.263 18.4127 13.6391 18.4127H13.6391ZM11.5932 3.06882C11.5932 2.50473 12.0523 2.04588 12.6162 2.04588H16.7079C17.272 2.04588 17.7309 2.50473 17.7309 3.06882V4.09176H11.5932L11.5932 3.06882ZM26.2553 4.09176H19.7767V3.06882C19.7767 1.37654 18.3999 0 16.7079 0H12.6162C10.9241 0 9.5476 1.37655 9.5476 3.06882V4.09176H3.06906C1.37678 4.09176 0.000244141 5.46831 0.000244141 7.16031C0.000244141 8.73733 1.19579 10.0395 2.7279 10.2099V27.6188C2.7279 29.3109 4.10472 30.6877 5.79672 30.6877H11.4171L7.25606 33.6001C6.79315 33.9242 6.6806 34.5622 7.00472 35.0248C7.32424 35.4812 7.9722 35.5962 8.42915 35.2764L13.6391 31.6294V34.4383C13.6391 35.0032 14.0971 35.4612 14.662 35.4612C15.2269 35.4612 15.685 35.0032 15.685 34.4383V31.6294L20.8949 35.2764C21.3519 35.5962 22.0001 35.4815 22.3196 35.0248C22.6435 34.5622 22.5309 33.9242 22.068 33.6001L17.9073 30.6877H23.5273C25.2196 30.6877 26.5962 29.3108 26.5962 27.6188V10.2099C28.1283 10.0395 29.3238 8.73734 29.3238 7.16031C29.3238 5.4683 27.9473 4.09176 26.2553 4.09176Z" fill="#D10263"/>
</svg>
