<svg width="29" height="29" viewBox="0 0 29 29" fill="none" xmlns="http://www.w3.org/2000/svg">
<path fill-rule="evenodd" clip-rule="evenodd" d="M5.81183 8.64996C7.3769 8.64996 8.65002 7.37684 8.65002 5.81177C8.65002 4.2467 7.3769 2.97333 5.81183 2.97333C4.24676 2.97333 2.97339 4.2467 2.97339 5.81177C2.97339 7.37684 4.24676 8.64996 5.81183 8.64996Z" fill="#BF0080"/>
<path fill-rule="evenodd" clip-rule="evenodd" d="M22.3006 19.4623C20.7355 19.4623 19.4624 20.7354 19.4624 22.3005C19.4624 23.8656 20.7355 25.139 22.3006 25.139C23.8657 25.139 25.139 23.8656 25.139 22.3005C25.139 20.7355 23.8657 19.4623 22.3006 19.4623Z" fill="#BF0080"/>
<path fill-rule="evenodd" clip-rule="evenodd" d="M23.2467 11.6233C22.1895 11.6233 21.2882 12.3015 20.9534 13.2452H18.0292C17.9239 12.7283 17.7195 12.2473 17.4375 11.8217L21.3554 7.9038C20.917 7.58254 20.5298 7.19539 20.2085 6.75702L16.2906 10.6749C15.8651 10.3928 15.384 10.1885 14.8672 10.0832V7.15893C15.8111 6.82411 16.489 5.92264 16.489 4.86549C16.489 3.52413 15.3975 2.43286 14.0562 2.43286C12.7148 2.43286 11.6233 3.52413 11.6233 4.86549C11.6233 5.92265 12.3013 6.82411 13.2452 7.15893V10.0832C12.7283 10.1885 12.2473 10.3928 11.822 10.6749L9.48474 8.33789C9.17546 8.7862 8.78638 9.17522 8.3379 9.48473L10.6751 11.8217C10.3928 12.2473 10.1885 12.7283 10.0832 13.2452H7.15894C6.82412 12.3015 5.92288 11.6233 4.86571 11.6233C3.52413 11.6233 2.43286 12.7148 2.43286 14.0562C2.43286 15.3976 3.52413 16.489 4.86571 16.489C5.92287 16.489 6.82411 15.8108 7.15894 14.8672H10.0832C10.1885 15.384 10.3928 15.8651 10.6749 16.2906L6.75703 20.2085C7.1954 20.5298 7.58255 20.9169 7.90381 21.3554L11.8217 17.4375C12.2473 17.7195 12.7283 17.9239 13.2452 18.0292V20.9534C12.3013 21.2882 11.6233 22.1897 11.6233 23.2469C11.6233 24.5882 12.7148 25.6795 14.0562 25.6795C15.3976 25.6795 16.489 24.5882 16.489 23.2469C16.489 22.1897 15.8111 21.2882 14.8672 20.9534V18.0292C15.384 17.9239 15.8651 17.7195 16.2904 17.4375L18.6276 19.7745C18.9369 19.3261 19.326 18.9371 19.7745 18.6276L17.4372 16.2906C17.7195 15.8651 17.9239 15.384 18.0292 14.8672H20.9534C21.2882 15.8108 22.1895 16.489 23.2466 16.489C24.5882 16.489 25.6795 15.3975 25.6795 14.0562C25.6795 12.7148 24.5882 11.6233 23.2466 11.6233L23.2467 11.6233Z" fill="#BF0080"/>
<path fill-rule="evenodd" clip-rule="evenodd" d="M3.64916 20.814C1.63691 20.814 0 22.451 0 24.4632C0 26.4755 1.63691 28.1123 3.64916 28.1123C5.66139 28.1123 7.29833 26.4755 7.29833 24.4632C7.29833 22.451 5.66139 20.814 3.64916 20.814Z" fill="#BF0080"/>
<path fill-rule="evenodd" clip-rule="evenodd" d="M24.4631 0C22.4509 0 20.814 1.63691 20.814 3.64916C20.814 5.66139 22.4509 7.29833 24.4631 7.29833C26.4754 7.29833 28.1123 5.66139 28.1123 3.64916C28.1123 1.63691 26.4754 0 24.4631 0Z" fill="#BF0080"/>
</svg>
