<svg width="31" height="26" viewBox="0 0 31 26" fill="none" xmlns="http://www.w3.org/2000/svg">
<path fill-rule="evenodd" clip-rule="evenodd" d="M19.2114 20.7414L20.3919 16.0189C20.5107 15.5444 20.9919 15.2561 21.4657 15.3746C21.9402 15.4931 22.2287 15.9739 22.11 16.4484L20.9294 21.1709C20.8287 21.5733 20.4678 21.8419 20.0711 21.8419C19.9999 21.8419 19.9275 21.8332 19.8556 21.8152C19.3812 21.6964 19.0926 21.2159 19.2114 20.7414ZM10.8401 21.8152C10.768 21.8332 10.6959 21.8419 10.6247 21.8419C10.2279 21.8419 9.86705 21.5733 9.76634 21.1709L8.58578 16.4484C8.46704 15.9739 8.75557 15.4931 9.23004 15.3746C9.70428 15.2561 10.1851 15.5444 10.3038 16.0189L11.4844 20.7414C11.6031 21.2159 11.3146 21.6965 10.8401 21.8152ZM16.2333 16.2337V20.9561C16.2333 21.4452 15.8369 21.8416 15.3479 21.8416C14.8589 21.8416 14.4624 21.4452 14.4624 20.9561V16.2337C14.4624 15.7447 14.8589 15.3482 15.3479 15.3482H4.0979L4.86231 22.9913C4.99861 24.3552 6.13515 25.3833 7.50541 25.3833H23.19C24.5605 25.3833 25.697 24.355 25.8333 22.9913L26.5977 15.3482H15.3478C15.8368 15.3482 16.2333 15.7447 16.2333 16.2337H16.2333Z" fill="#EC6C0B"/>
<path fill-rule="evenodd" clip-rule="evenodd" d="M27.4493 7.0837H24.3036L23.0257 1.9722C22.7353 0.811071 21.6966 6.10352e-05 20.4999 6.10352e-05C19.6924 6.10352e-05 18.9446 0.364931 18.4476 1.00123C17.9509 1.63777 17.7783 2.45182 17.9741 3.23496L18.9364 7.08369H11.7593L12.7216 3.23496C12.9174 2.45182 12.7448 1.63776 12.2481 1.00123C11.7511 0.364931 11.0031 6.10352e-05 10.1958 6.10352e-05C8.99911 6.10352e-05 7.96045 0.811071 7.67006 1.9722L6.39207 7.0837H3.24638C1.45621 7.0837 -0.000244141 8.54015 -0.000244141 10.3306C-0.000244141 12.1207 1.45621 13.5772 3.24638 13.5772H27.4493C29.2395 13.5772 30.6959 12.1207 30.6959 10.3306C30.6959 8.54015 29.2395 7.0837 27.4493 7.0837H27.4493Z" fill="#EC6C0B"/>
</svg>
