<svg width="22" height="33" viewBox="0 0 22 33" fill="none" xmlns="http://www.w3.org/2000/svg">
<path fill-rule="evenodd" clip-rule="evenodd" d="M7.99071 8.56156C7.99071 8.6931 7.88366 8.80016 7.75211 8.80016H2.04446C1.91296 8.80016 1.80591 8.69311 1.80591 8.56156V2.85391C1.80591 2.72241 1.91296 2.61536 2.04446 2.61536H7.75211C7.88365 2.61536 7.99071 2.72237 7.99071 2.85391V8.56156ZM7.75212 0.809448H2.04447C0.91719 0.809448 0 1.72664 0 2.85392V8.56161C0 9.68893 0.91719 10.6061 2.04447 10.6061H7.75216C8.87948 10.6061 9.79663 9.68889 9.79663 8.56157V2.85392C9.79663 1.72664 8.87948 0.809448 7.75212 0.809448Z" fill="#BEBEBE"/>
<path fill-rule="evenodd" clip-rule="evenodd" d="M20.1941 8.56156C20.1941 8.6931 20.0871 8.80016 19.9555 8.80016H14.2478C14.1163 8.80016 14.0093 8.69311 14.0093 8.56156V2.85391C14.0093 2.72241 14.1163 2.61536 14.2478 2.61536H19.9555C20.087 2.61536 20.1941 2.72237 20.1941 2.85391V8.56156ZM19.9555 0.809448H14.2478C13.1205 0.809448 12.2034 1.72664 12.2034 2.85392V8.56157C12.2034 9.68894 13.1205 10.6061 14.2478 10.6061H19.9555C21.0829 10.6061 22 9.68889 22 8.56157V2.85392C22 1.72664 21.0828 0.809448 19.9555 0.809448Z" fill="#BEBEBE"/>
<path fill-rule="evenodd" clip-rule="evenodd" d="M20.1941 20.765C20.1941 20.8965 20.0871 21.0035 19.9555 21.0035H14.2478C14.1163 21.0035 14.0093 20.8965 14.0093 20.765V15.0573C14.0093 14.9258 14.1163 14.8187 14.2478 14.8187H19.9555C20.087 14.8187 20.1941 14.9258 20.1941 15.0573V20.765ZM19.9555 13.0128H14.2478C13.1205 13.0128 12.2034 13.93 12.2034 15.0573V20.765C12.2034 21.8923 13.1205 22.8094 14.2478 22.8094H19.9555C21.0828 22.8094 22 21.8923 22 20.765V15.0573C22 13.93 21.0829 13.0128 19.9555 13.0128Z" fill="#BEBEBE"/>
<path fill-rule="evenodd" clip-rule="evenodd" d="M7.99071 20.765C7.99071 20.8965 7.88366 21.0035 7.75211 21.0035H2.04446C1.91296 21.0035 1.80591 20.8965 1.80591 20.765V15.0573C1.80591 14.9258 1.91292 14.8187 2.04446 14.8187H7.75211C7.88365 14.8187 7.99071 14.9258 7.99071 15.0573V20.765ZM7.75212 13.0128H2.04447C0.91719 13.0128 0 13.9299 0 15.0573V20.765C0 21.8923 0.91719 22.8094 2.04447 22.8094H7.75216C8.87948 22.8094 9.79663 21.8923 9.79663 20.765V15.0573C9.79663 13.93 8.87948 13.0128 7.75212 13.0128Z" fill="#BEBEBE"/>
<path d="M2.71527 32C2.64861 32 2.59194 31.9767 2.54527 31.93C2.49861 31.8833 2.47527 31.8267 2.47527 31.76V26.23H0.625273C0.558607 26.23 0.50194 26.2067 0.455273 26.16C0.408607 26.1133 0.385273 26.0567 0.385273 25.99V25.25C0.385273 25.1767 0.408607 25.1167 0.455273 25.07C0.50194 25.0233 0.558607 25 0.625273 25H5.72527C5.79861 25 5.85861 25.0233 5.90527 25.07C5.95194 25.1167 5.97527 25.1767 5.97527 25.25V25.99C5.97527 26.0567 5.95194 26.1133 5.90527 26.16C5.85861 26.2067 5.79861 26.23 5.72527 26.23H3.88527V31.76C3.88527 31.8267 3.86194 31.8833 3.81527 31.93C3.76861 31.9767 3.70861 32 3.63527 32H2.71527ZM7.48152 32.1C7.13486 32.1 6.82152 32.0333 6.54152 31.9C6.26152 31.76 6.03819 31.5767 5.87152 31.35C5.71152 31.1167 5.63152 30.8567 5.63152 30.57C5.63152 30.1033 5.81819 29.7333 6.19152 29.46C6.57152 29.18 7.07152 28.9933 7.69152 28.9L9.06152 28.7V28.49C9.06152 28.21 8.99152 27.9933 8.85152 27.84C8.71152 27.6867 8.47152 27.61 8.13152 27.61C7.89152 27.61 7.69486 27.66 7.54152 27.76C7.39486 27.8533 7.28486 27.98 7.21152 28.14C7.15819 28.2267 7.08152 28.27 6.98152 28.27H6.19152C6.11819 28.27 6.06152 28.25 6.02152 28.21C5.98819 28.17 5.97152 28.1167 5.97152 28.05C5.97819 27.9433 6.02152 27.8133 6.10152 27.66C6.18152 27.5067 6.30819 27.36 6.48152 27.22C6.65486 27.0733 6.87819 26.95 7.15152 26.85C7.42486 26.75 7.75486 26.7 8.14152 26.7C8.56152 26.7 8.91486 26.7533 9.20152 26.86C9.49486 26.96 9.72819 27.0967 9.90152 27.27C10.0749 27.4433 10.2015 27.6467 10.2815 27.88C10.3615 28.1133 10.4015 28.36 10.4015 28.62V31.76C10.4015 31.8267 10.3782 31.8833 10.3315 31.93C10.2849 31.9767 10.2282 32 10.1615 32H9.35152C9.27819 32 9.21819 31.9767 9.17152 31.93C9.13152 31.8833 9.11152 31.8267 9.11152 31.76V31.37C9.02486 31.4967 8.90819 31.6167 8.76152 31.73C8.61486 31.8367 8.43486 31.9267 8.22152 32C8.01486 32.0667 7.76819 32.1 7.48152 32.1ZM7.82152 31.15C8.05486 31.15 8.26486 31.1 8.45152 31C8.64486 30.9 8.79486 30.7467 8.90152 30.54C9.01486 30.3267 9.07152 30.06 9.07152 29.74V29.53L8.07152 29.69C7.67819 29.75 7.38486 29.8467 7.19152 29.98C6.99819 30.1133 6.90152 30.2767 6.90152 30.47C6.90152 30.6167 6.94486 30.7433 7.03152 30.85C7.12486 30.95 7.24152 31.0267 7.38152 31.08C7.52152 31.1267 7.66819 31.15 7.82152 31.15ZM13.6544 32.1C13.2544 32.1 12.9111 32.0533 12.6244 31.96C12.3444 31.8667 12.1144 31.75 11.9344 31.61C11.7544 31.47 11.6211 31.33 11.5344 31.19C11.4477 31.05 11.4011 30.9333 11.3944 30.84C11.3877 30.7667 11.4077 30.71 11.4544 30.67C11.5077 30.6233 11.5644 30.6 11.6244 30.6H12.4144C12.4411 30.6 12.4644 30.6033 12.4844 30.61C12.5044 30.6167 12.5311 30.6367 12.5644 30.67C12.6511 30.7433 12.7411 30.82 12.8344 30.9C12.9344 30.98 13.0511 31.05 13.1844 31.11C13.3177 31.1633 13.4844 31.19 13.6844 31.19C13.9444 31.19 14.1611 31.14 14.3344 31.04C14.5144 30.9333 14.6044 30.7833 14.6044 30.59C14.6044 30.45 14.5644 30.3367 14.4844 30.25C14.4111 30.1633 14.2711 30.0867 14.0644 30.02C13.8577 29.9467 13.5644 29.87 13.1844 29.79C12.8111 29.7033 12.5011 29.5933 12.2544 29.46C12.0077 29.3267 11.8244 29.16 11.7044 28.96C11.5844 28.76 11.5244 28.5267 11.5244 28.26C11.5244 28 11.6011 27.7533 11.7544 27.52C11.9144 27.28 12.1477 27.0833 12.4544 26.93C12.7677 26.7767 13.1544 26.7 13.6144 26.7C13.9744 26.7 14.2877 26.7467 14.5544 26.84C14.8211 26.9267 15.0411 27.0367 15.2144 27.17C15.3944 27.3033 15.5311 27.44 15.6244 27.58C15.7177 27.7133 15.7677 27.83 15.7744 27.93C15.7811 28.0033 15.7611 28.0633 15.7144 28.11C15.6677 28.15 15.6144 28.17 15.5544 28.17H14.8144C14.7811 28.17 14.7511 28.1633 14.7244 28.15C14.6977 28.1367 14.6711 28.12 14.6444 28.1C14.5711 28.0333 14.4911 27.9633 14.4044 27.89C14.3177 27.8167 14.2111 27.7533 14.0844 27.7C13.9644 27.64 13.8044 27.61 13.6044 27.61C13.3511 27.61 13.1577 27.6667 13.0244 27.78C12.8911 27.8867 12.8244 28.0233 12.8244 28.19C12.8244 28.3033 12.8544 28.4033 12.9144 28.49C12.9811 28.57 13.1111 28.6467 13.3044 28.72C13.4977 28.7933 13.7911 28.87 14.1844 28.95C14.6311 29.03 14.9844 29.15 15.2444 29.31C15.5111 29.4633 15.6977 29.6433 15.8044 29.85C15.9177 30.05 15.9744 30.2733 15.9744 30.52C15.9744 30.82 15.8844 31.09 15.7044 31.33C15.5311 31.57 15.2711 31.76 14.9244 31.9C14.5844 32.0333 14.1611 32.1 13.6544 32.1ZM17.2567 32C17.19 32 17.1333 31.9767 17.0867 31.93C17.04 31.8833 17.0167 31.8267 17.0167 31.76V25.14C17.0167 25.0733 17.04 25.0167 17.0867 24.97C17.1333 24.9233 17.19 24.9 17.2567 24.9H18.0667C18.14 24.9 18.1967 24.9233 18.2367 24.97C18.2833 25.0167 18.3067 25.0733 18.3067 25.14V28.56L19.9867 26.97C20.0467 26.9167 20.1 26.8767 20.1467 26.85C20.1933 26.8167 20.2633 26.8 20.3567 26.8H21.2867C21.3533 26.8 21.4067 26.82 21.4467 26.86C21.4867 26.9 21.5067 26.9533 21.5067 27.02C21.5067 27.0467 21.5 27.0767 21.4867 27.11C21.4733 27.1433 21.4467 27.1733 21.4067 27.2L19.3467 29.13L21.6567 31.61C21.7233 31.6767 21.7567 31.7333 21.7567 31.78C21.7567 31.8467 21.7333 31.9 21.6867 31.94C21.6467 31.98 21.5967 32 21.5367 32H20.5867C20.4867 32 20.4133 31.9867 20.3667 31.96C20.3267 31.9267 20.2767 31.8833 20.2167 31.83L18.3067 29.82V31.76C18.3067 31.8267 18.2833 31.8833 18.2367 31.93C18.1967 31.9767 18.14 32 18.0667 32H17.2567Z" fill="#9F9F9F"/>
</svg>
