<svg width="29" height="35" viewBox="0 0 29 35" fill="none" xmlns="http://www.w3.org/2000/svg">
<path fill-rule="evenodd" clip-rule="evenodd" d="M22.3007 9.12535C22.3007 11.3641 21.4979 13.3019 19.9142 14.8859C18.3304 16.4696 16.3924 17.2724 14.1537 17.2724H14.1498C11.9139 17.2717 9.97715 16.4688 8.39341 14.8859C6.80941 13.3019 6.00684 11.3641 6.00684 9.12535C6.00684 6.88742 6.80941 4.94936 8.39341 3.36561C9.97637 1.78239 11.9131 0.979814 14.1498 0.979034H14.1537C16.3916 0.979034 18.3297 1.78186 19.9142 3.36561C21.4979 4.94935 22.3007 6.88741 22.3007 9.12535Z" fill="#F9C229"/>
<path fill-rule="evenodd" clip-rule="evenodd" d="M28.4774 28.9867C28.4774 30.7529 27.9156 32.1829 26.809 33.236C25.7154 34.2768 24.2689 34.804 22.5102 34.804H6.22328C4.46457 34.804 3.01812 34.2768 1.92522 33.236C0.817866 32.182 0.256836 30.7524 0.256836 28.9867C0.256836 28.3075 0.279286 27.6355 0.324186 26.9893C0.369866 26.3286 0.462246 25.6097 0.598506 24.8512C0.735796 24.0865 0.912316 23.3637 1.12367 22.7031C1.34302 22.0192 1.6398 21.3446 2.00702 20.6984C2.38844 20.0277 2.83644 19.4435 3.33863 18.9624C3.86508 18.459 4.50869 18.0545 5.25269 17.7599C5.99411 17.4667 6.81605 17.3181 7.69553 17.3181C8.04056 17.3181 8.37476 17.4592 9.01889 17.8788C9.42199 18.1418 9.8865 18.4411 10.3993 18.7689C10.8421 19.0512 11.4418 19.316 12.1833 19.5552C12.8349 19.7661 13.4963 19.8837 14.1497 19.9041C14.2217 19.9067 14.2937 19.908 14.3657 19.908C15.0914 19.908 15.8253 19.789 16.5489 19.5552C17.2904 19.316 17.8909 19.0512 18.3335 18.7689C18.8516 18.4378 19.3162 18.1387 19.7133 17.8796C20.358 17.4592 20.6916 17.3181 21.0375 17.3181C21.9162 17.3181 22.7381 17.4667 23.48 17.7599C24.224 18.0546 24.8676 18.4598 25.3936 18.9625C25.8965 19.4435 26.3445 20.0278 26.7257 20.6984C27.0932 21.3451 27.3905 22.0192 27.6091 22.7023C27.8207 23.3637 27.9977 24.0866 28.135 24.8517C28.2705 25.611 28.3631 26.3299 28.4085 26.9888C28.4542 27.6329 28.4767 28.3049 28.4774 28.9867L28.4774 28.9867Z" fill="#F9C229"/>
</svg>
