<svg width="29" height="26" viewBox="0 0 29 26" fill="none" xmlns="http://www.w3.org/2000/svg">
<path fill-rule="evenodd" clip-rule="evenodd" d="M25.5589 15.0083C24.8961 15.6195 24.0348 15.9563 23.1333 15.9563H17.332V16.7817C17.332 18.1469 16.2214 19.2577 14.8562 19.2577H13.7556C12.3904 19.2577 11.2798 18.1469 11.2798 16.7817V15.9563H6.37641C5.63401 15.9563 4.92087 15.73 4.31425 15.3019L0.000244141 12.2452V19.8078H2.20101C4.47644 19.8078 6.32773 21.6591 6.32773 23.9345V25.8603H22.2841V23.9345C22.2841 21.6591 24.1354 19.8078 26.4108 19.8078H28.6116V12.1134L25.5669 15.0005C25.5643 15.0031 25.5615 15.0057 25.5588 15.0083L25.5589 15.0083Z" fill="#1ED102"/>
<path fill-rule="evenodd" clip-rule="evenodd" d="M14.8564 17.6071C15.3113 17.6071 15.6817 17.2368 15.6817 16.7817V13.4803C15.6817 13.0252 15.3113 12.655 14.8564 12.655H13.7558C13.3008 12.655 12.9304 13.0252 12.9304 13.4803V16.7817C12.9304 17.2368 13.3008 17.6071 13.7558 17.6071H14.8564Z" fill="#1ED102"/>
<path fill-rule="evenodd" clip-rule="evenodd" d="M11.0216 6.60254L11.6007 4.40177H17.0109L17.5903 6.60254H11.0216ZM26.1356 6.60254H22.1418L20.836 1.64065C20.5819 0.67473 19.7066 0 18.7077 0H9.90416C8.90528 0 8.02994 0.67472 7.77586 1.64065L6.47006 6.60254H2.47627C1.11088 6.60254 0.000244141 7.7134 0.000244141 9.07857V10.2224L5.26751 13.9542C5.59276 14.1839 5.97673 14.3057 6.37663 14.3057H11.2798V13.4803C11.2798 12.1152 12.3904 11.0043 13.7556 11.0043H14.8562C16.2214 11.0043 17.332 12.1152 17.332 13.4803V14.3057H23.1333C23.617 14.3057 24.0793 14.1258 24.4356 13.7986L28.5939 9.85524C28.5996 9.85 28.6057 9.84542 28.6116 9.84018V9.07857C28.6116 7.7134 27.501 6.60254 26.1356 6.60254H26.1356Z" fill="#1ED102"/>
<path fill-rule="evenodd" clip-rule="evenodd" d="M23.9348 23.9346V25.8603H26.1356C27.501 25.8603 28.6116 24.7497 28.6116 23.3843V21.4585H26.4109C25.0455 21.4585 23.9348 22.5692 23.9348 23.9346H23.9348Z" fill="#1ED102"/>
<path fill-rule="evenodd" clip-rule="evenodd" d="M2.20101 21.4585H0.000244141V23.3842C0.000244141 24.7497 1.11089 25.8603 2.47627 25.8603H4.67704V23.9346C4.67704 22.5692 3.56639 21.4585 2.20101 21.4585Z" fill="#1ED102"/>
</svg>
